<svg width="565" height="595" viewBox="0 0 565 595" fill="none" xmlns="http://www.w3.org/2000/svg">
<path d="M60 414C68.8 494 101 536 173 555C358.803 604.031 515.802 495 557 382C592 286 449.021 274 544.021 137C639.021 7.62939e-06 367 5.99973 241 103C141.42 179.661 49 314 60 414Z" fill="#FD6A8D" fill-opacity="0.2" stroke="white"/>
<g clip-path="url(#clip0)">
<path d="M546 535.789C546 553.848 423.774 595 273 595C122.226 595 0 553.848 0 535.789C0 517.73 122.226 529.603 273 529.603C423.774 529.603 546 517.73 546 535.789Z" fill="#3F3D56"/>
<path opacity="0.1" d="M546 535.789C546 553.848 423.774 595 273 595C122.226 595 0 553.848 0 535.789C0 517.73 122.226 529.603 273 529.603C423.774 529.603 546 517.73 546 535.789Z" fill="black"/>
<path d="M77.7476 295.411C84.0908 295.411 89.233 290.268 89.233 283.923C89.233 277.578 84.0908 272.434 77.7476 272.434C71.4043 272.434 66.2621 277.578 66.2621 283.923C66.2621 290.268 71.4043 295.411 77.7476 295.411Z" fill="#FD6A8D"/>
<path d="M128.107 389.972C134.45 389.972 139.592 384.828 139.592 378.483C139.592 372.138 134.45 366.995 128.107 366.995C121.764 366.995 116.621 372.138 116.621 378.483C116.621 384.828 121.764 389.972 128.107 389.972Z" fill="#FD6A8D"/>
<path d="M89.233 366.111C95.5762 366.111 100.718 360.967 100.718 354.622C100.718 348.277 95.5762 343.133 89.233 343.133C82.8898 343.133 77.7476 348.277 77.7476 354.622C77.7476 360.967 82.8898 366.111 89.233 366.111Z" fill="#FD6A8D"/>
<path d="M92.8964 517.692C92.6937 517.36 87.913 509.375 86.2555 492.795C84.7353 477.583 85.7128 451.943 99.0067 416.176C124.191 348.419 93.2027 293.748 92.8861 293.204L94.4149 292.317C94.4951 292.455 102.491 306.393 107.215 328.589C113.457 358.015 111.184 388.612 100.663 416.792C75.5216 484.434 94.213 516.455 94.4045 516.771L92.8964 517.692Z" fill="#CFCCE0"/>
<path d="M83.0486 290.109C80.6022 290.109 78.2108 289.383 76.1768 288.024C74.1427 286.664 72.5573 284.732 71.6212 282.471C70.685 280.211 70.44 277.723 70.9173 275.323C71.3946 272.923 72.5726 270.718 74.3024 268.988C76.0322 267.258 78.2362 266.079 80.6355 265.602C83.0348 265.125 85.5218 265.37 87.782 266.306C90.0421 267.242 91.9738 268.828 93.333 270.863C94.6921 272.897 95.4175 275.29 95.4175 277.737C95.4138 281.017 94.1095 284.162 91.7907 286.481C89.4718 288.801 86.3279 290.105 83.0486 290.109ZM83.0486 267.132C80.9517 267.132 78.9019 267.754 77.1585 268.919C75.415 270.084 74.0561 271.74 73.2537 273.678C72.4512 275.616 72.2413 277.748 72.6503 279.805C73.0594 281.863 74.0692 283.752 75.5519 285.235C77.0346 286.718 78.9237 287.729 80.9802 288.138C83.0368 288.547 85.1685 288.337 87.1058 287.534C89.043 286.732 90.6988 285.372 91.8638 283.628C93.0287 281.884 93.6505 279.834 93.6505 277.737C93.6473 274.925 92.5293 272.229 90.5417 270.241C88.5542 268.253 85.8594 267.135 83.0486 267.132Z" fill="#CFCCE0"/>
<path d="M119.272 331.645C125.615 331.645 130.757 326.501 130.757 320.156C130.757 313.811 125.615 308.668 119.272 308.668C112.929 308.668 107.786 313.811 107.786 320.156C107.786 326.501 112.929 331.645 119.272 331.645Z" fill="#CFCCE0"/>
<path d="M94.5339 360.808C92.0876 360.808 89.6962 360.083 87.6621 358.723C85.6281 357.364 84.0427 355.431 83.1066 353.171C82.1704 350.91 81.9255 348.422 82.4027 346.022C82.88 343.622 84.058 341.418 85.7878 339.687C87.5177 337.957 89.7216 336.779 92.1209 336.301C94.5203 335.824 97.0072 336.069 99.2674 337.005C101.527 337.942 103.459 339.528 104.818 341.562C106.177 343.597 106.903 345.989 106.903 348.436C106.899 351.716 105.595 354.861 103.276 357.18C100.957 359.5 97.8133 360.805 94.5339 360.808ZM94.5339 337.831C92.4371 337.831 90.3873 338.453 88.6438 339.618C86.9003 340.784 85.5415 342.44 84.739 344.378C83.9366 346.315 83.7266 348.448 84.1357 350.505C84.5448 352.562 85.5545 354.452 87.0372 355.935C88.52 357.418 90.409 358.428 92.4656 358.837C94.5222 359.246 96.6539 359.036 98.5911 358.234C100.528 357.431 102.184 356.072 103.349 354.328C104.514 352.584 105.136 350.533 105.136 348.436C105.133 345.624 104.015 342.929 102.027 340.941C100.04 338.953 97.3448 337.834 94.5339 337.831V337.831Z" fill="#CFCCE0"/>
<path d="M124.573 384.669C122.126 384.669 119.735 383.944 117.701 382.584C115.667 381.225 114.082 379.292 113.145 377.032C112.209 374.771 111.964 372.283 112.442 369.883C112.919 367.483 114.097 365.279 115.827 363.548C117.556 361.818 119.76 360.64 122.16 360.162C124.559 359.685 127.046 359.93 129.306 360.866C131.566 361.803 133.498 363.389 134.857 365.423C136.216 367.458 136.942 369.85 136.942 372.297C136.938 375.577 135.634 378.722 133.315 381.041C130.996 383.361 127.852 384.666 124.573 384.669ZM124.573 361.692C122.476 361.692 120.426 362.314 118.683 363.479C116.939 364.645 115.58 366.301 114.778 368.239C113.975 370.176 113.765 372.309 114.175 374.366C114.584 376.423 115.593 378.313 117.076 379.796C118.559 381.279 120.448 382.289 122.504 382.698C124.561 383.107 126.693 382.897 128.63 382.095C130.567 381.292 132.223 379.933 133.388 378.189C134.553 376.445 135.175 374.394 135.175 372.297C135.172 369.485 134.054 366.79 132.066 364.802C130.078 362.813 127.384 361.695 124.573 361.692Z" fill="#CFCCE0"/>
<path d="M85.699 420.903C92.0422 420.903 97.1844 415.759 97.1844 409.414C97.1844 403.069 92.0422 397.926 85.699 397.926C79.3558 397.926 74.2136 403.069 74.2136 409.414C74.2136 415.759 79.3558 420.903 85.699 420.903Z" fill="#CFCCE0"/>
<path d="M99.835 518.114C99.835 518.114 88.3495 489.835 122.806 468.625L99.835 518.114Z" fill="#CFCCE0"/>
<path d="M85.7097 517.601C85.7097 517.601 80.4825 487.528 40.0255 487.786L85.7097 517.601Z" fill="#CFCCE0"/>
<path d="M500.357 528.719H304.862C304.862 528.719 300.899 470.583 324.346 469.923C347.792 469.262 345.15 495.687 374.54 459.352C403.93 423.017 439.595 424.999 444.218 446.47C448.841 467.941 435.302 485.117 460.069 479.832C484.836 474.547 520.5 488.42 500.357 528.719Z" fill="#FD6A8D"/>
<path d="M399.309 528.733L398.65 528.706C400.188 490.43 408.202 465.837 414.654 451.946C421.66 436.864 428.41 430.758 428.478 430.698L428.917 431.192C428.85 431.251 422.178 437.296 415.229 452.277C408.813 466.108 400.842 490.6 399.309 528.733Z" fill="#F2F2F2"/>
<path d="M470.064 528.812L469.43 528.627C477.064 502.415 495.043 485.866 495.224 485.701L495.667 486.19C495.488 486.353 477.644 502.786 470.064 528.812Z" fill="#F2F2F2"/>
<path d="M335.653 528.765L334.999 528.674C337.589 509.988 332.91 495.49 328.529 486.618C323.785 477.012 318.372 471.766 318.318 471.714L318.775 471.237C318.83 471.29 324.327 476.617 329.121 486.326C333.544 495.28 338.267 509.912 335.653 528.765Z" fill="#F2F2F2"/>
<path d="M526.889 529.603H283.776L283.72 528.779C283.58 526.73 280.479 478.392 296.137 461.145C299.637 457.289 303.854 455.266 308.669 455.13C318.875 454.84 325.289 458.664 330.463 461.733C340.213 467.519 346.655 471.342 370.076 442.387C395.448 411.019 422.823 404.27 438.56 408.023C448.728 410.448 455.736 417.301 457.788 426.827C459.73 435.846 459.111 444.321 458.614 451.131C458.082 458.417 457.662 464.172 460.654 466.78C463.151 468.956 468.136 469.154 476.34 467.403C493.028 463.842 516.312 466.889 528 481.994C534.288 490.12 539.241 504.892 527.133 529.115L526.889 529.603ZM285.435 527.836H525.795C534.817 509.525 535.099 494.057 526.602 483.075C515.881 469.219 493.388 465.572 476.709 469.131C467.795 471.034 462.484 470.72 459.493 468.113C455.835 464.925 456.284 458.781 456.852 451.002C457.341 444.305 457.949 435.97 456.06 427.199C454.158 418.366 447.631 412.003 438.151 409.742C422.916 406.106 396.305 412.77 371.449 443.498C347.069 473.64 339.724 469.284 329.561 463.253C324.324 460.146 318.378 456.623 308.719 456.897C304.403 457.018 300.61 458.848 297.445 462.333C283.372 477.834 285.091 521.301 285.435 527.836Z" fill="#CFCCE0"/>
<path d="M273 568.488C423.774 568.488 546 553.848 546 535.789C546 517.73 423.774 503.091 273 503.091C122.226 503.091 0 517.73 0 535.789C0 553.848 122.226 568.488 273 568.488Z" fill="#3F3D56"/>
<path d="M279.003 108.036C279.003 108.036 265.355 103.161 256.581 122.663C247.807 142.166 234.159 163.619 234.159 163.619L241.958 165.57C241.958 165.57 243.908 151.918 248.782 149.967L246.832 167.52C246.832 167.52 305.324 187.998 331.646 165.57L330.671 158.744C330.671 158.744 334.571 159.719 334.571 165.57L337.495 162.644C337.495 162.644 334.571 156.793 325.797 148.992C320.038 143.872 318.059 134.131 317.379 128.04C316.869 122.954 314.835 118.142 311.543 114.233C305.713 107.473 295.088 100.289 279.003 108.036Z" fill="#2F2E41"/>
<path d="M264.607 184.502L250.471 166.827L239.869 130.593L280.51 87.2901C280.51 87.2901 289.345 53.7079 281.393 55.4754C273.442 57.2428 271.675 81.9876 271.675 81.9876L220.432 121.756C220.432 121.756 225.733 177.432 240.752 196.874L252.238 233.108L264.607 184.502Z" fill="#FFB9B9"/>
<path d="M303.481 184.502L317.617 166.827L328.218 130.593L287.578 87.2901C287.578 87.2901 278.743 53.7079 286.694 55.4754C294.646 57.2428 296.413 81.9876 296.413 81.9876L347.655 121.756C347.655 121.756 342.354 177.432 327.335 196.874L315.85 233.108L303.481 184.502Z" fill="#FFB9B9"/>
<path d="M284.044 169.478C296.73 169.478 307.015 159.191 307.015 146.501C307.015 133.811 296.73 123.524 284.044 123.524C271.357 123.524 261.073 133.811 261.073 146.501C261.073 159.191 271.357 169.478 284.044 169.478Z" fill="#FFB9B9"/>
<path d="M273.442 158.873C273.442 158.873 274.325 177.432 269.024 183.618C263.723 189.804 258.422 221.619 284.044 222.503C309.665 223.386 307.014 195.99 307.014 195.99L301.714 180.967C301.714 180.967 293.762 169.478 296.413 158.873H273.442Z" fill="#FFB9B9"/>
<path d="M249.587 364.785L268.582 370.529C268.582 370.529 284.044 361.25 284.044 370.088C284.044 378.925 278.743 390.414 280.51 398.367C282.277 406.321 285.811 425.763 280.51 425.763C275.209 425.763 264.607 391.297 264.607 391.297L246.937 381.576L249.587 364.785Z" fill="#FFB9B9"/>
<path d="M273.442 488.509L266.374 515.905C266.374 515.905 260.189 523.859 266.374 527.394C269.276 529.052 271.4 532.463 272.837 535.615C274.089 538.454 276.185 540.839 278.84 542.446C281.494 544.052 284.579 544.802 287.674 544.594C290.69 544.344 293.23 543.151 293.848 540.052C294.019 539.08 293.986 538.082 293.75 537.124C293.515 536.165 293.082 535.265 292.48 534.483C285.963 525.674 284.485 519.882 284.485 519.882L287.136 488.951L273.442 488.509Z" fill="#FFB9B9"/>
<path d="M256.334 150.582C256.334 150.582 264.133 139.855 270.957 137.905C277.781 135.954 278.756 126.203 278.756 126.203C278.756 126.203 296.304 145.706 307.027 146.681C317.751 147.656 308.002 123.278 308.002 123.278L288.505 118.402L269.982 120.352L255.359 130.104L256.334 150.582Z" fill="#2F2E41"/>
<path d="M241.636 297.621L238.102 304.691C238.102 304.691 152.403 332.087 159.471 357.715C166.539 383.344 206.296 376.274 206.296 376.274L250.471 384.227L254.888 364.785L223.966 356.831L276.976 337.389L278.743 427.531L271.675 492.044L289.345 493.812C289.345 493.812 308.782 434.601 306.131 409.856C306.131 409.856 338.82 309.109 320.267 294.086C301.714 279.062 241.636 297.621 241.636 297.621Z" fill="#2F2E41"/>
<path d="M285.08 196.003L271.294 179.337L261.956 183.618L252.238 214.549C252.238 214.549 244.286 229.573 254.005 245.48C254.005 245.48 255.772 256.085 253.121 258.736C250.471 261.387 249.587 278.178 249.587 278.178L238.102 300.272C238.102 300.272 303.481 311.761 322.918 295.853C322.918 295.853 312.718 258.24 318.903 246.751C325.087 235.263 325.971 217.65 318.903 209.697C311.835 201.743 304.364 180.967 304.364 180.967L300.085 178.23L285.08 196.003Z" fill="#CFCCE0"/>
<path d="M336.619 64.0578H328.146V55.5819H327.376V64.0578H318.903V64.8279H327.376V73.3037H328.146V64.8279H336.619V64.0578Z" fill="#CFCCE0"/>
<path d="M256.088 46.336H247.615V37.8602H246.845V46.336H238.372V47.1061H246.845V55.5819H247.615V47.1061H256.088V46.336Z" fill="#CFCCE0"/>
<path d="M294.743 8.47582H286.27V0H285.5V8.47582H277.026V9.24595H285.5V17.7218H286.27V9.24595H294.743V8.47582Z" fill="#CFCCE0"/>
</g>
<defs>
<clipPath id="clip0">
<rect width="546" height="595" fill="white"/>
</clipPath>
</defs>
</svg>
